<svg xmlns="http://www.w3.org/2000/svg" viewBox="0 0 120 120" fill="none" aria-hidden="true">
  <defs>
    <linearGradient id="gold" x1="18%" y1="6%" x2="82%" y2="94%">
      <stop offset="0%" stop-color="#f5e6b8"/>
      <stop offset="42%" stop-color="#d4af37"/>
      <stop offset="100%" stop-color="#8b6914"/>
    </linearGradient>
    <radialGradient id="halo" cx="50%" cy="42%" r="52%">
      <stop offset="0%" stop-color="#fffdf8" stop-opacity="0.9"/>
      <stop offset="100%" stop-color="#d4af37" stop-opacity="0"/>
    </radialGradient>
  </defs>

  <circle cx="60" cy="60" r="55" fill="url(#halo)"/>
  <ellipse cx="60" cy="60" rx="46" ry="50" stroke="url(#gold)" stroke-width="1.3" opacity="0.45"/>
  <ellipse cx="60" cy="60" rx="40" ry="44" stroke="url(#gold)" stroke-width="1.8"/>

  <path
    d="M60 22 L62.4 28.2 H57.6 Z"
    fill="url(#gold)"
  />

  <path
    d="M60 31
       C56.5 31 54 33.2 53 36.5
       C52 39.5 51.5 42.5 51.5 45.5
       C51.5 48.5 52.5 50.5 54.5 52
       L52.5 88
       C52 93 55.5 97 60 97
       H60
       C64.5 97 68 93 67.5 88
       L65.5 52
       C67.5 50.5 68.5 48.5 68.5 45.5
       C68.5 42.5 68 39.5 67 36.5
       C66 33.2 63.5 31 60 31
       Z"
    fill="#fffdf8"
    stroke="url(#gold)"
    stroke-width="1.7"
    stroke-linejoin="round"
  />

  <path
    d="M54.5 52 C57 54.5 60 55.5 60 55.5 C60 55.5 63 54.5 65.5 52"
    stroke="url(#gold)"
    stroke-width="1.2"
    fill="none"
    stroke-linecap="round"
  />

  <path
    d="M60 55.5 V82"
    stroke="url(#gold)"
    stroke-width="0.9"
    opacity="0.35"
    stroke-linecap="round"
  />

  <path
    d="M56 68 C58.5 73 61.5 73 64 68"
    stroke="url(#gold)"
    stroke-width="0.9"
    fill="none"
    opacity="0.35"
    stroke-linecap="round"
  />
</svg>
