<svg xmlns="http://www.w3.org/2000/svg" viewBox="0 0 120 120" fill="none" aria-hidden="true">
  <defs>
    <linearGradient id="gold" x1="14%" y1="4%" x2="86%" y2="96%">
      <stop offset="0%" stop-color="#fff4cc"/>
      <stop offset="38%" stop-color="#e8c547"/>
      <stop offset="72%" stop-color="#d4af37"/>
      <stop offset="100%" stop-color="#8b6914"/>
    </linearGradient>
    <linearGradient id="dressFill" x1="50%" y1="0%" x2="50%" y2="100%">
      <stop offset="0%" stop-color="#fffef9"/>
      <stop offset="100%" stop-color="#f8f0dc"/>
    </linearGradient>
    <radialGradient id="glow" cx="50%" cy="38%" r="58%">
      <stop offset="0%" stop-color="#fffdf8" stop-opacity="0.95"/>
      <stop offset="72%" stop-color="#f4ebd4" stop-opacity="0.35"/>
      <stop offset="100%" stop-color="#d4af37" stop-opacity="0"/>
    </radialGradient>
    <filter id="softShadow" x="-20%" y="-20%" width="140%" height="140%">
      <feDropShadow dx="0" dy="2" stdDeviation="2.5" flood-color="#8b6914" flood-opacity="0.18"/>
    </filter>
  </defs>

  <circle cx="60" cy="60" r="54" fill="url(#glow)"/>
  <circle cx="60" cy="60" r="50" stroke="url(#gold)" stroke-width="1.4" opacity="0.55"/>
  <circle cx="60" cy="60" r="44" stroke="url(#gold)" stroke-width="2"/>

  <g filter="url(#softShadow)">
    <path
      d="M38 34 C42 30 48 28 60 28 C72 28 78 30 82 34"
      stroke="url(#gold)"
      stroke-width="2.2"
      stroke-linecap="round"
      fill="none"
    />
    <circle cx="60" cy="28" r="2.2" fill="url(#gold)"/>

    <path
      d="M60 33
         C54 33 50 36.5 48.5 41
         C47 45 46.5 49 46.5 53
         C46.5 56.5 47.5 59 49.5 61
         L47 90
         C46.2 95.5 49.5 99.5 54 99.5
         H66
         C70.5 99.5 73.8 95.5 73 90
         L70.5 61
         C72.5 59 73.5 56.5 73.5 53
         C73.5 49 73 45 71.5 41
         C70 36.5 66 33 60 33
         Z"
      fill="url(#dressFill)"
      stroke="url(#gold)"
      stroke-width="2"
      stroke-linejoin="round"
    />

    <path
      d="M49.5 61 C53.5 64 57 65 60 65 C63 65 66.5 64 70.5 61"
      stroke="url(#gold)"
      stroke-width="1.5"
      fill="none"
      stroke-linecap="round"
      opacity="0.85"
    />

    <path
      d="M54 44 C57 48 60 49 60 49 C60 49 63 48 66 44"
      stroke="url(#gold)"
      stroke-width="1.1"
      fill="none"
      opacity="0.45"
      stroke-linecap="round"
    />
  </g>

  <path
    d="M78 78 L84 72 M84 72 L90 78 M84 72 L84 66"
    stroke="url(#gold)"
    stroke-width="1.6"
    stroke-linecap="round"
    stroke-linejoin="round"
    opacity="0.75"
  />
  <circle cx="90" cy="62" r="1.6" fill="#e8c547" opacity="0.9"/>
  <circle cx="94" cy="68" r="1.1" fill="#d4af37" opacity="0.7"/>
  <circle cx="86" cy="58" r="1.1" fill="#fff4cc" opacity="0.8"/>
</svg>
