<svg xmlns="http://www.w3.org/2000/svg" viewBox="0 0 120 120" fill="none" aria-hidden="true">
  <defs>
    <linearGradient id="gold" x1="18%" y1="0%" x2="82%" y2="100%">
      <stop offset="0%" stop-color="#fff8dc"/>
      <stop offset="35%" stop-color="#f0d060"/>
      <stop offset="70%" stop-color="#d4af37"/>
      <stop offset="100%" stop-color="#9a7b1a"/>
    </linearGradient>
    <linearGradient id="silk" x1="30%" y1="0%" x2="70%" y2="100%">
      <stop offset="0%" stop-color="#ffffff"/>
      <stop offset="45%" stop-color="#fff9ef"/>
      <stop offset="100%" stop-color="#f3e3c2"/>
    </linearGradient>
    <linearGradient id="skirt" x1="50%" y1="55%" x2="50%" y2="100%">
      <stop offset="0%" stop-color="#fffdf9"/>
      <stop offset="100%" stop-color="#ead9b8"/>
    </linearGradient>
    <radialGradient id="halo" cx="50%" cy="42%" r="50%">
      <stop offset="0%" stop-color="#fffef7" stop-opacity="1"/>
      <stop offset="100%" stop-color="#d4af37" stop-opacity="0"/>
    </radialGradient>
    <filter id="glow" x="-30%" y="-30%" width="160%" height="160%">
      <feDropShadow dx="0" dy="2" stdDeviation="3" flood-color="#b8860b" flood-opacity="0.22"/>
    </filter>
  </defs>

  <circle cx="60" cy="60" r="56" fill="url(#halo)"/>
  <circle cx="60" cy="60" r="52" stroke="url(#gold)" stroke-width="1.2" opacity="0.35"/>
  <circle cx="60" cy="60" r="46" stroke="url(#gold)" stroke-width="2.2"/>

  <g filter="url(#glow)">
    <path d="M34 36 C40 31 50 28 60 28 C70 28 80 31 86 36" stroke="url(#gold)" stroke-width="2.4" stroke-linecap="round" fill="none"/>
    <circle cx="60" cy="27.5" r="2.5" fill="url(#gold)"/>

    <path
      d="M60 34
         C52 34 47 38 45.5 44
         C44 49 43.5 54 44 58
         L41.5 92
         C40.5 98 44 102 49 102
         H71
         C76 102 79.5 98 78.5 92
         L76 58
         C76.5 54 76 49 74.5 44
         C73 38 68 34 60 34
         Z"
      fill="url(#silk)"
      stroke="url(#gold)"
      stroke-width="2"
      stroke-linejoin="round"
    />

    <path
      d="M60 34 L60 58"
      stroke="url(#gold)"
      stroke-width="1"
      opacity="0.25"
    />

    <path
      d="M44 58
         C48 62 54 64 60 64
         C66 64 72 62 76 58
         L78.5 92
         C79.5 98 76 102 71 102
         H49
         C44 102 40.5 98 41.5 92
         Z"
      fill="url(#skirt)"
      stroke="url(#gold)"
      stroke-width="1.6"
      stroke-linejoin="round"
    />

    <path
      d="M49 72 C54 80 60 82 60 82 C60 82 66 80 71 72"
      stroke="url(#gold)"
      stroke-width="1.2"
      fill="none"
      opacity="0.4"
      stroke-linecap="round"
    />

    <path
      d="M52 46 C56 50 60 51 60 51 C60 51 64 50 68 46"
      stroke="url(#gold)"
      stroke-width="1.3"
      fill="none"
      opacity="0.55"
      stroke-linecap="round"
    />

    <circle cx="60" cy="51" r="2" fill="url(#gold)" opacity="0.85"/>
    <circle cx="54" cy="70" r="1.2" fill="#f0d060" opacity="0.7"/>
    <circle cx="66" cy="74" r="1.2" fill="#f0d060" opacity="0.7"/>
    <circle cx="60" cy="86" r="1.4" fill="#d4af37" opacity="0.55"/>
  </g>
</svg>
